# xmcd
#
# Track frame offsets: 
#        150
#        14938
#        32697
#        46727
#        65265
#        86293
#        102411
#        121874
#        140315
#        156876
#        172966
#
# Disc length: 2536 seconds
#
# Revision: 0
# Processed by: cddbd v1.5.2PL0 Copyright (c) Steve Scherf et al.
# Submitted via: ExactAudioCopy v1.0b4
#
DISCID=8509e60b
DTITLE=Hell's Gate Blues Band - Thin Line
DYEAR=2016
DGENRE=Blues
TTITLE0=Attraction
TTITLE1=Burning Bridges
TTITLE2=Love or the Booze
TTITLE3=Thin Line
TTITLE4=Smoke and Ashes
TTITLE5=Stitch the Pain
TTITLE6=Dancing Shoes
TTITLE7=Missing You
TTITLE8=Woodstock Redux
TTITLE9=Smiling Girls
TTITLE10=Bring Me Some Water
EXTD=
EXTT0=
EXTT1=
EXTT2=
EXTT3=
EXTT4=
EXTT5=
EXTT6=
EXTT7=
EXTT8=
EXTT9=
EXTT10=
PLAYORDER=
